<?xml version="1.0" encoding="utf-8"?>
<!-- Generator: Adobe Illustrator 19.1.0, SVG Export Plug-In . SVG Version: 6.00 Build 0)  -->
<svg version="1.1" id="Layer_1" xmlns="http://www.w3.org/2000/svg" xmlns:xlink="http://www.w3.org/1999/xlink" x="0px" y="0px"
	 viewBox="0 0 260 18" style="enable-background:new 0 0 260 18;" xml:space="preserve">
<style type="text/css">
	.st0{fill:#FFFFFF;}
</style>
<g>
	<g>
		<path class="st0" d="M150.953,1.159h4.01v5.903h5.137V1.159h4.01v15.726h-4.01v-6.308h-5.137v6.263h-4.01V1.159z"/>
		<path class="st0" d="M175.646,0.844c4.822,0,8.291,3.785,8.291,8.156s-3.425,8.156-8.336,8.156c-4.957,0-8.246-3.92-8.246-7.976
			c0-1.036,0.135-2.208,0.631-3.334C168.797,3.818,171.231,0.844,175.646,0.844z M175.692,13.641c2.839,0,4.236-2.614,4.236-4.596
			c0-2.028-1.397-4.641-4.281-4.641c-2.794,0-4.281,2.388-4.281,4.596C171.366,11.388,172.988,13.641,175.692,13.641z"/>
		<path class="st0" d="M191.147,1.159v9.508c0,1.081,0.045,2.974,2.028,2.974s1.983-1.757,1.983-2.974V1.159h4.01v9.508
			c0,2.614-0.586,3.785-1.577,4.821c-1.036,1.036-2.433,1.712-4.416,1.712c-1.127,0-3.244-0.27-4.506-1.667
			c-1.307-1.442-1.577-2.523-1.577-4.821V1.159H191.147z"/>
		<path class="st0" d="M209.217,5.711c-0.09-0.541-0.225-1.532-1.442-1.532c-0.676,0-1.397,0.496-1.397,1.217
			c0,0.946,0.406,1.127,3.244,2.388c2.929,1.307,3.695,2.659,3.695,4.506c0,2.298-1.307,4.821-5.497,4.821
			c-4.551,0-5.678-2.974-5.678-5.002v-0.496h4.01c0,1.847,1.127,2.163,1.622,2.163c0.946,0,1.532-0.766,1.532-1.487
			c0-1.036-0.676-1.307-3.064-2.298c-1.081-0.451-3.83-1.532-3.83-4.506c0-2.929,2.884-4.641,5.497-4.641
			c1.532,0,3.244,0.586,4.236,1.802c0.946,1.127,0.991,2.208,1.036,3.109L209.217,5.711L209.217,5.711L209.217,5.711z"/>
		<path class="st0" d="M218.184,4.674h-3.109V1.159h10.184v3.515h-3.064v12.166h-4.01L218.184,4.674L218.184,4.674z"/>
		<path class="st0" d="M235.217,0.844c4.822,0,8.291,3.785,8.291,8.156s-3.425,8.156-8.336,8.156c-4.957,0-8.246-3.92-8.246-7.976
			c0-1.036,0.135-2.208,0.631-3.334C228.367,3.818,230.846,0.844,235.217,0.844z M235.262,13.641c2.839,0,4.236-2.614,4.236-4.596
			c0-2.028-1.397-4.641-4.281-4.641c-2.794,0-4.281,2.388-4.281,4.596C230.936,11.388,232.603,13.641,235.262,13.641z"/>
		<path class="st0" d="M246.752,1.159h3.47l6.083,9.868l0.045-0.045l-0.18-9.823H260v15.726h-3.47l-5.993-9.598h-0.045l0.09,9.553
			h-3.83L246.752,1.159L246.752,1.159z"/>
	</g>
	<g>
		<path class="st0" d="M8.922,10.893c0,1.127-0.18,2.118-0.496,2.659c-0.631,1.172-1.667,1.757-2.974,1.757
			s-2.343-0.631-2.974-1.802c-0.315-0.586-0.496-1.532-0.496-2.659V1.114H0v9.778c0,1.307,0.225,2.433,0.586,3.289
			c1.262,2.749,4.01,2.974,4.821,2.974s3.56-0.225,4.821-2.974c0.406-0.856,0.586-1.983,0.586-3.289V1.114H8.877L8.922,10.893
			L8.922,10.893z"/>
		<polygon class="st0" points="26.36,13.461 18.069,1.114 15.681,1.114 15.681,16.886 17.619,16.886 17.619,3.773 26.451,16.886
			28.298,16.886 28.298,1.114 26.36,1.114 		"/>
		<rect x="33.12" y="1.114" class="st0" width="1.938" height="15.771"/>
		<polygon class="st0" points="45.782,14.227 40.51,1.114 38.347,1.114 44.835,16.886 46.638,16.886 53.172,1.114 51.054,1.114
			"/>
		<polygon class="st0" points="56.371,16.886 65.203,16.886 65.203,15.083 58.354,15.083 58.354,9.811 64.977,9.811 64.977,8.009
			58.354,8.009 58.354,2.917 65.203,2.917 65.203,1.114 56.371,1.114 		"/>
		<path class="st0" d="M80.388,6.296c0-1.983-1.081-3.74-2.839-4.551c-0.586-0.27-1.577-0.586-3.875-0.586h-4.101v15.771h1.938
			V2.917h2.478c1.217,0,1.983,0.09,2.884,0.541s1.577,1.622,1.577,2.749c0,1.081-0.631,2.568-2.388,3.064
			c-0.631,0.18-1.262,0.225-3.244,0.225h-0.406l5.542,7.39h2.433l-4.371-5.768C78.901,10.757,80.388,8.459,80.388,6.296z"/>
		<path class="st0" d="M89.13,7.783l-0.09-0.045c-1.983-0.586-3.38-0.991-3.38-2.659c0-1.217,0.901-2.478,2.568-2.478
			c1.352,0,2.523,1.172,2.523,2.568v0.225h1.938V5.17c0-2.433-1.938-4.371-4.461-4.371c-2.568,0-4.506,1.847-4.506,4.326
			c0,3.019,2.433,3.74,3.875,4.191l0.36,0.09c1.081,0.315,3.154,0.946,3.154,3.019c0,1.757-1.487,2.839-2.884,2.839
			c-1.757,0-2.929-1.127-2.974-2.974v-0.18h-1.938v0.225c0.045,3.289,2.614,4.776,4.957,4.776c2.704,0,4.821-2.073,4.821-4.731
			C93.005,11.343,92.645,8.775,89.13,7.783z"/>
		<rect x="96.79" y="1.114" class="st0" width="1.938" height="15.771"/>
		<polygon class="st0" points="102.062,2.917 105.622,2.917 105.622,16.886 107.56,16.886 107.56,2.917 111.075,2.917
			111.075,1.114 102.062,1.114 		"/>
		<polygon class="st0" points="123.556,1.114 119.185,9.496 114.905,1.114 112.742,1.114 118.239,11.568 118.239,16.886
			120.177,16.886 120.132,11.659 125.719,1.114 		"/>
		<path class="st0" d="M132.794,6.206c-2.614,0-5.407,2.118-5.407,5.542c0,2.929,2.478,5.362,5.407,5.362
			c2.974,0,5.452-2.478,5.452-5.452C138.246,8.73,135.723,6.206,132.794,6.206z M132.794,15.534c-2.073,0-3.74-1.712-3.74-3.83
			c0-2.433,1.938-3.92,3.74-3.92c1.487,0,3.74,1.217,3.74,3.83C136.534,14.092,134.641,15.534,132.794,15.534z"/>
		<path class="st0" d="M144.51,4.314h0.225V2.692h-0.225c-3.74,0.045-4.01,2.433-4.055,3.785h-1.577v1.577h1.532v8.832h1.712V8.054
			h2.568V6.477h-2.568c0-0.406,0.045-0.946,0.27-1.352C142.797,4.584,143.473,4.314,144.51,4.314z"/>
	</g>
</g>
</svg>
